<svg xmlns="http://www.w3.org/2000/svg" viewBox="0 0 520 170"><defs><linearGradient id="g" x1="0" x2="1"><stop stop-color="#0a8f4d"/><stop offset="1" stop-color="#21b85a"/></linearGradient></defs><rect width="520" height="170" rx="34" fill="white"/><g fill="none" stroke="#0a8f4d" stroke-width="8" stroke-linecap="round" stroke-linejoin="round"><path d="M55 116h115l18-34h38l18 34h38"/><circle cx="105" cy="132" r="20"/><circle cx="225" cy="132" r="20"/><path d="M122 112l28-47h40l30 47M151 65l-10-24M151 65h-25M190 65l18-28 18 28"/><path d="M54 94h43"/></g><path d="M275 44c15-28 43-37 67-29-9 26-32 43-61 38" fill="#75c94a"/><path d="M286 53c17-13 31-23 52-33" stroke="#0a8f4d" stroke-width="5" fill="none"/><text x="270" y="112" text-anchor="middle" font-family="Tahoma,Arial,sans-serif" font-size="66" font-weight="900" fill="url(#g)">دستچین</text><text x="270" y="143" text-anchor="middle" font-family="Tahoma,Arial,sans-serif" font-size="17" font-weight="700" fill="#5b493d">تازه، سالم، دستچین شده برای شما</text></svg>